<svg xmlns="http://www.w3.org/2000/svg" width="31.999" height="32" viewBox="0 0 31.999 32">
  <path id="interface_-_arrow_left" data-name="interface - arrow left" d="M749.687,2237.314A16,16,0,1,1,761,2242,15.895,15.895,0,0,1,749.687,2237.314ZM747,2226a14,14,0,1,0,14-14A14.016,14.016,0,0,0,747,2226Zm15.816,5.808-5.517-5.255a.691.691,0,0,1-.1-.078.657.657,0,0,1,0-.951.7.7,0,0,1,.1-.077l5.518-5.256a.719.719,0,0,1,.984,0,.64.64,0,0,1,0,.936L758.683,2226l5.117,4.873a.641.641,0,0,1,0,.936.721.721,0,0,1-.984,0Z" transform="translate(-745 -2210)" fill="#d8bba3"/>
</svg>
