<svg xmlns="http://www.w3.org/2000/svg" width="31.999" height="32" viewBox="0 0 31.999 32">
  <path id="interface_-_arrow_right" data-name="interface - arrow right" d="M1143.687,2237.314A16,16,0,1,1,1155,2242,15.895,15.895,0,0,1,1143.687,2237.314ZM1141,2226a14,14,0,1,0,14-14A14.016,14.016,0,0,0,1141,2226Zm11.2,5.81a.639.639,0,0,1,0-.936l5.117-4.873-5.117-4.872a.64.64,0,0,1,0-.937.72.72,0,0,1,.983,0l5.522,5.258a.726.726,0,0,1,.094.075.657.657,0,0,1,0,.951.7.7,0,0,1-.1.076l-5.52,5.257a.72.72,0,0,1-.983,0Z" transform="translate(-1139 -2210)" fill="#56534c"/>
</svg>
